<?xml version="1.0" standalone="no"?>
<!DOCTYPE svg PUBLIC "-//W3C//DTD SVG 20010904//EN"
 "http://www.w3.org/TR/2001/REC-SVG-20010904/DTD/svg10.dtd">
<svg version="1.0" xmlns="http://www.w3.org/2000/svg"
 width="500.000000pt" height="500.000000pt" viewBox="0 0 500.000000 500.000000"
 preserveAspectRatio="xMidYMid meet">
<metadata>
Created by potrace 1.14, written by Peter Selinger 2001-2017
</metadata>
<g transform="translate(0.000000,500.000000) scale(0.100000,-0.100000)"
fill="#000000" stroke="none">
<path d="M3727 4072 l-68 -68 42 -70 c283 -464 350 -1082 173 -1612 -70 -211
-194 -436 -334 -607 -85 -104 -274 -281 -378 -355 -508 -359 -1150 -454 -1737
-259 -134 45 -307 126 -404 189 l-64 41 -63 -62 c-35 -35 -64 -71 -64 -79 0
-10 41 -41 103 -78 267 -160 549 -256 866 -292 149 -18 464 -8 611 18 351 63
652 197 941 418 417 320 694 784 796 1334 25 138 25 554 0 695 -40 220 -100
409 -191 595 -53 111 -137 252 -151 257 -6 2 -41 -28 -78 -65z"/>
<path d="M3100 3451 c-201 -202 -724 -722 -1163 -1156 -730 -722 -797 -791
-780 -803 39 -29 263 -132 352 -161 364 -120 767 -111 1131 26 466 175 843
567 1000 1042 121 365 121 718 0 1084 -43 129 -145 338 -163 335 -7 -1 -176
-166 -377 -367z"/>
</g>
</svg>
